<?xml version="1.0" standalone="no"?>
<!DOCTYPE svg PUBLIC "-//W3C//DTD SVG 20010904//EN"
 "http://www.w3.org/TR/2001/REC-SVG-20010904/DTD/svg10.dtd">
<svg version="1.0" xmlns="http://www.w3.org/2000/svg"
 width="600.000000pt" height="600.000000pt" viewBox="0 0 600.000000 600.000000"
 preserveAspectRatio="xMidYMid meet">
<metadata>
Created by potrace 1.11, written by Peter Selinger 2001-2013
</metadata>
<g transform="translate(0.000000,600.000000) scale(0.100000,-0.100000)"
fill="#000000" stroke="none">
<path d="M2789 5996 c-2 -2 -35 -6 -74 -10 -142 -13 -209 -23 -292 -41 -35 -8
-65 -14 -98 -21 -71 -14 -251 -67 -342 -100 -101 -37 -123 -46 -208 -85 -27
-13 -53 -22 -57 -21 -5 1 -8 -3 -8 -8 0 -5 -3 -9 -7 -8 -8 2 -40 -14 -163 -79
-67 -36 -347 -219 -365 -238 -5 -6 -44 -38 -85 -71 -167 -133 -411 -394 -530
-568 -19 -28 -47 -67 -63 -87 -15 -20 -27 -39 -27 -42 0 -3 -13 -25 -29 -49
-28 -42 -90 -153 -130 -233 -23 -48 -65 -138 -66 -145 -1 -3 -9 -23 -19 -45
-10 -22 -19 -44 -20 -50 -1 -5 -10 -27 -19 -49 -9 -21 -17 -44 -17 -51 0 -6
-3 -15 -7 -19 -5 -4 -8 -11 -9 -14 0 -4 -11 -41 -23 -82 -13 -41 -24 -79 -25
-85 -1 -5 -5 -19 -9 -30 -3 -11 -8 -31 -11 -45 -3 -14 -12 -56 -20 -95 -17
-80 -23 -110 -32 -174 -4 -25 -8 -55 -10 -66 -11 -57 -18 -192 -18 -385 -1
-235 6 -327 40 -520 37 -218 101 -433 193 -655 28 -65 122 -252 164 -325 48
-82 193 -300 206 -310 4 -3 18 -21 31 -40 13 -19 31 -42 40 -50 8 -8 36 -40
62 -71 45 -53 178 -189 249 -255 109 -100 412 -324 438 -324 5 0 11 -3 13 -7
3 -8 35 -26 123 -72 28 -14 52 -28 55 -31 10 -11 174 -85 182 -83 4 2 8 -2 8
-9 0 -6 3 -8 7 -5 3 4 11 3 17 -1 6 -5 38 -19 71 -31 33 -13 69 -27 80 -31 19
-8 56 -20 147 -49 20 -7 47 -14 59 -16 12 -3 36 -9 53 -14 17 -6 42 -12 56
-15 14 -3 57 -12 95 -20 39 -8 87 -17 108 -20 20 -3 52 -8 70 -11 225 -34 497
-37 787 -10 25 3 56 8 70 11 14 4 39 8 55 9 29 3 64 9 115 20 14 3 36 8 50 10
65 11 314 85 380 112 8 3 20 7 25 8 6 2 53 22 105 45 52 22 100 42 105 44 6 1
26 11 45 21 19 10 60 32 90 47 170 88 383 233 554 378 58 49 274 266 328 330
53 63 193 247 213 282 6 9 39 65 75 125 80 132 168 309 215 434 20 52 38 101
42 109 3 8 7 18 8 23 2 4 4 9 5 12 1 3 3 8 4 13 1 4 10 34 20 67 10 33 20 67
21 75 2 8 4 16 5 18 2 1 4 7 5 12 1 6 3 11 5 13 1 1 3 11 5 22 2 11 9 40 14
65 35 155 56 293 68 455 11 153 5 446 -12 575 -6 54 -27 186 -32 205 -2 11 -6
31 -8 45 -6 39 -72 282 -86 315 -7 17 -11 34 -10 39 1 4 -4 14 -10 22 -6 8 -8
14 -4 14 4 0 2 6 -4 13 -6 8 -12 22 -14 33 -2 10 -11 36 -20 58 -9 21 -17 40
-17 42 0 3 -18 43 -40 90 -22 47 -40 90 -40 95 0 5 -4 9 -10 9 -5 0 -10 7 -10
15 0 14 -18 53 -30 65 -3 3 -12 18 -20 35 -35 70 -168 278 -182 283 -4 2 -8
10 -8 17 0 7 -3 15 -7 17 -5 2 -28 30 -53 62 -145 190 -375 419 -555 551 -22
17 -42 33 -45 36 -21 25 -348 227 -374 232 -6 1 -13 5 -16 8 -8 10 -135 69
-148 69 -7 0 -12 5 -12 10 0 6 -6 10 -14 10 -8 0 -27 7 -43 15 -52 27 -287
107 -401 136 -74 19 -214 51 -242 54 -64 8 -188 26 -215 31 -33 6 -511 15
-516 10z"/>
</g>
</svg>
